<svg xmlns="http://www.w3.org/2000/svg" xmlns:xlink="http://www.w3.org/1999/xlink" width="46.266" height="52.675" viewBox="0 0 46.266 52.675">
  <defs>
    <clipPath id="clip-path">
      <rect width="46.267" height="52.675" fill="none"/>
    </clipPath>
    <clipPath id="clip-path-2">
      <path id="Clip_2" data-name="Clip 2" d="M0,0H46.267V52.675H0Z" fill="none"/>
    </clipPath>
  </defs>
  <g id="BASKET" clip-path="url(#clip-path)">
    <g id="Page_1" data-name="Page 1">
      <path id="Clip_2-2" data-name="Clip 2" d="M0,0H46.267V52.675H0Z" fill="none"/>
      <g id="Page_1-2" data-name="Page 1" clip-path="url(#clip-path-2)">
        <path id="Fill_1" data-name="Fill 1" d="M45.172,52.675H1.1a1.011,1.011,0,0,1-.826-.394,1.2,1.2,0,0,1-.253-.919L3.822,14.694a1.173,1.173,0,0,1,1.142-1.05h7.229v-2.23A11.242,11.242,0,0,1,23.228,0,11.243,11.243,0,0,1,34.264,11.414v2.23H41.3a1.173,1.173,0,0,1,1.142,1.05l3.8,36.668a1.2,1.2,0,0,1-.253.919A1.009,1.009,0,0,1,45.172,52.675ZM5.978,15.94,2.426,50.248h41.6L40.479,15.94H34.011V18.1a3.335,3.335,0,0,1,2.156,3.149,3.237,3.237,0,1,1-6.47,0A3.334,3.334,0,0,1,31.853,18.1V15.94h-17.5V18.1a3.334,3.334,0,0,1,2.156,3.149,3.236,3.236,0,1,1-6.469,0A3.333,3.333,0,0,1,12.193,18.1V15.94H5.978Zm27.144,4.33a1.05,1.05,0,1,0,1.016,1.048A1.021,1.021,0,0,0,33.122,20.27Zm-19.786,0a1.05,1.05,0,1,0,1.014,1.048A1.021,1.021,0,0,0,13.336,20.27ZM23.228,2.361a8.916,8.916,0,0,0-8.752,9.053v2.23H31.981v-2.23A8.917,8.917,0,0,0,23.228,2.361Z" transform="translate(0 0)" fill="#fff"/>
      </g>
    </g>
  </g>
</svg>
