<svg id="Group_264" data-name="Group 264" xmlns="http://www.w3.org/2000/svg" width="25.416" height="22.342" viewBox="0 0 25.416 22.342">
  <path id="Path_327" data-name="Path 327" d="M12.706,0a1.7,1.7,0,0,0-1.441.832L.218,19.858a1.7,1.7,0,0,0,0,1.663,1.687,1.687,0,0,0,1.451.822H23.744A1.662,1.662,0,0,0,25.2,19.858L14.148.832A1.7,1.7,0,0,0,12.706,0Zm0,.571a1.115,1.115,0,0,1,.951.551L24.705,20.138a1.191,1.191,0,0,1,0,1.1,1.157,1.157,0,0,1-.96.541H1.668a1.126,1.126,0,0,1-.951-.541,1.136,1.136,0,0,1-.01-1.1L11.756,1.122a1.126,1.126,0,0,1,.951-.551Zm-.03,6.773a.291.291,0,0,0-.25.291v8.516a.286.286,0,0,0,.28.28.28.28,0,0,0,.28-.28V7.634a.29.29,0,0,0-.29-.291Zm.03,10.69a.621.621,0,0,0,0,1.242.621.621,0,1,0,0-1.242Z" fill="#ee7313"/>
</svg>
