<svg xmlns="http://www.w3.org/2000/svg" xmlns:xlink="http://www.w3.org/1999/xlink" width="4927" height="4927" viewBox="0 0 4927 4927">
  <defs>
    <linearGradient id="linear-gradient" x1="0.5" y1="-0.327" x2="0.5" y2="1.204" gradientUnits="objectBoundingBox">
      <stop offset="0" stop-color="#ffd21f"/>
      <stop offset="1" stop-color="#ff006f"/>
    </linearGradient>
  </defs>
  <g id="Group_296" data-name="Group 296" transform="translate(8002 16498)">
    <g id="Rectangle_1449" data-name="Rectangle 1449" transform="translate(-8002 -16498)" fill="none" stroke="#707070" stroke-width="1">
      <rect width="4927" height="4927" stroke="none"/>
      <rect x="0.5" y="0.5" width="4926" height="4926" fill="none"/>
    </g>
    <path id="Path_335" data-name="Path 335" d="M1577.718,806.9l114.3,368.393c-171.74,159.63-229.179,234.023-305.88,491.576l-355.591,4.5L896.87,1361.452c45.213-22.491,141.752-93.425,158.707-126.412-62.86-118.107-208.533-83.506-363.78-83.621-149.71-.115-299.767-.692-449.477.231-68.05,96.539-105.3,192.847-89.157,349.132,39.907-21.684,207.38-274.623,482.233-136.446C774.034,1434,853.5,1627.309,957.539,1756.489l525.486.577,14.648-69.78c28.027-285.464,227.218-415.913,448.554-364.472,96.885,22.606,128.719,90.426,206.111,14.3-91.233-180.506-271.393-185.35-315.568-210.494-40.023-22.837-36.1-62.168-61.476-109.111,44.29-39.907,116.608-51.557,96.424-143.251-17.762-80.853-105.651-86.62-162.282-52.133L1675.41,769.07ZM806.444,1035.849l452.591,165.742c-55.593,397.344-162.974,468.047,83.044,417.182,18.108-61.245,99.768-395.383,95.847-456.4-7.728-118.338-229.64-179.929-335.406-221.105l36.447-265.28c47.289,20.646,20.3,4.383,59.515,38.754,54.325,47.4,82.352,112.34,188,92.271,41.061-7.843,246.6-86.62,278.775-111.764,9-201.267-170.241-56.516-307.84-28.719-61.822-74.394-193.078-254.438-291.578-272.893C851.427,353.618,876.109,413.825,835.51,691.331,818.9,804.825,781.992,933.89,806.444,1035.849ZM2.069,607.71c0,162.513-8.535,287.887,12.8,443.133,90.311,31.949,598.726,36.678,677.387-3.806,25.836-87.543,14.763-328.025,14.763-439.327,0-92.617-27.451-111.764-117.3-111.764H122.944C27.443,495.947,2.069,507.25,2.069,607.71ZM2036.191,1731c-67.7,213.724-416.72,137.715-343.019-107.035C1759.377,1403.9,2105.625,1511.97,2036.191,1731Zm-261.935-338.751c-391.461,121.221-198.845,707.721,191.117,576,126.758-42.906,247.287-201.613,186.85-385.233C2108.163,1449.686,1957.76,1335.385,1774.255,1392.248ZM433.207,1508.625c232.293-61.706,312.223,289.617,88.7,344.749C288.225,1910.928,196.992,1571.485,433.207,1508.625ZM392.838,1386.6c-382.926,110.38-231.14,690.3,163.2,588.23C692.6,1939.417,810.6,1785.9,771.15,1607.355,740.009,1466.065,568.961,1335.847,392.838,1386.6ZM1057.076,20.749C852,128.591,1014.978,402.291,1197.214,311.173,1390.176,214.634,1247.617-79.365,1057.076,20.749Z" transform="translate(-6622.883 -16120.247)" fill-rule="evenodd" fill="url(#linear-gradient)"/>
    <g id="Group_293" data-name="Group 293" transform="translate(13389.475 9546)">
      <path id="Path_333" data-name="Path 333" d="M1704.244,550.434V303.189a27.471,27.471,0,0,0-27.471-27.472H1649.3V138.359a27.472,27.472,0,0,0-27.472-27.472H1209.754V28.472A27.472,27.472,0,0,0,1182.282,1H522.962A27.472,27.472,0,0,0,495.49,28.472v82.415H83.415a27.472,27.472,0,0,0-27.472,27.472V275.717H28.472A27.472,27.472,0,0,0,1,303.189V550.434A164.83,164.83,0,0,0,55.943,672.958v866.458H28.472A27.472,27.472,0,0,0,1,1566.888v109.887a27.472,27.472,0,0,0,27.472,27.472h1648.3a27.471,27.471,0,0,0,27.471-27.472V1566.888a27.471,27.471,0,0,0-27.471-27.472H1649.3V672.958a164.831,164.831,0,0,0,54.943-122.524Zm-54.943,0a109.887,109.887,0,1,1-219.773,0V330.661H1649.3ZM1209.754,275.717V165.83h384.6V275.717Zm-54.943,54.943h219.773V550.434a109.887,109.887,0,1,1-219.773,0ZM550.434,275.717V55.943H1154.81V275.717Zm329.66,54.943h219.773V550.434a109.887,109.887,0,1,1-219.773,0Zm-274.717,0H825.15V550.434a109.887,109.887,0,1,1-219.773,0Zm-274.717,0H550.434V550.434a109.887,109.887,0,1,1-219.774,0ZM110.887,275.717V165.83h384.6V275.717ZM55.943,330.661H275.717V550.434a109.887,109.887,0,1,1-219.773,0ZM1649.3,1649.3H55.943v-54.944H1649.3ZM220.773,1209.755h54.943v109.887H220.773Zm0,164.83h82.415a27.472,27.472,0,0,0,27.472-27.472v-164.83a27.472,27.472,0,0,0-27.472-27.472H220.773V989.982h384.6v549.434h-384.6Zm1373.584,164.83H660.32V962.51a27.472,27.472,0,0,0-27.472-27.472H193.3A27.472,27.472,0,0,0,165.83,962.51v576.906H110.887V705.649a164.83,164.83,0,0,0,192.3-64.284,164.83,164.83,0,0,0,274.717,0,164.83,164.83,0,0,0,274.717,0,164.83,164.83,0,0,0,274.717,0,164.83,164.83,0,0,0,274.717,0,164.83,164.83,0,0,0,192.3,64.284Z" transform="translate(-19780.975 -23199)" fill="url(#linear-gradient)"/>
      <path id="Path_334" data-name="Path 334" d="M823.679,31H54.472A27.472,27.472,0,0,0,27,58.472V607.906a27.472,27.472,0,0,0,27.472,27.472H823.679a27.472,27.472,0,0,0,27.472-27.472V58.472A27.472,27.472,0,0,0,823.679,31ZM219.3,552.963h54.943v27.472H164.358V401.868a13.736,13.736,0,1,1,27.472,0V525.491A27.472,27.472,0,0,0,219.3,552.963Zm494.49,27.472H603.905V552.963h54.943a27.472,27.472,0,0,0,27.472-27.472V401.868a13.736,13.736,0,1,1,27.472,0Zm82.415,0H768.735V401.868a68.679,68.679,0,1,0-137.358,0v96.151H603.905a54.943,54.943,0,0,0-54.943,54.943v27.472H466.547V470.547h41.208a68.679,68.679,0,1,0,0-137.358H370.4a68.679,68.679,0,0,0,0,137.359H411.6V580.434H329.188V552.963a54.943,54.943,0,0,0-54.943-54.943H246.773V401.868a68.679,68.679,0,1,0-137.358,0V580.434H81.943V85.944H796.207ZM370.4,415.6a13.736,13.736,0,0,1,0-27.472H507.754a13.736,13.736,0,1,1,0,27.472Z" transform="translate(-19092.713 -22404.848)" fill="url(#linear-gradient)"/>
    </g>
    <line id="Line_1" data-name="Line 1" x2="3885" transform="translate(-7481 -13892.5)" fill="none" stroke="#707070" stroke-width="2"/>
  </g>
</svg>
