<svg xmlns="http://www.w3.org/2000/svg" width="21.28" height="21.28" viewBox="0 0 21.28 21.28">
  <g id="Group_241" data-name="Group 241" transform="translate(-1563 -3087)">
    <path id="Path_40" data-name="Path 40" d="M10.64,1.892A32.624,32.624,0,0,1,14.9,2.01a5.483,5.483,0,0,1,2.01.355,4.152,4.152,0,0,1,2.01,2.01,5.483,5.483,0,0,1,.355,2.01c0,1.064.118,1.419.118,4.256A32.624,32.624,0,0,1,19.27,14.9a5.483,5.483,0,0,1-.355,2.01,4.152,4.152,0,0,1-2.01,2.01,5.483,5.483,0,0,1-2.01.355c-1.064,0-1.419.118-4.256.118a32.624,32.624,0,0,1-4.256-.118,5.483,5.483,0,0,1-2.01-.355,4.152,4.152,0,0,1-2.01-2.01A5.483,5.483,0,0,1,2.01,14.9c0-1.064-.118-1.419-.118-4.256A32.624,32.624,0,0,1,2.01,6.384a5.483,5.483,0,0,1,.355-2.01,4.246,4.246,0,0,1,.828-1.182,2,2,0,0,1,1.182-.828,5.483,5.483,0,0,1,2.01-.355,32.624,32.624,0,0,1,4.256-.118M10.64,0A34.931,34.931,0,0,0,6.266.118a7.3,7.3,0,0,0-2.6.473A4.628,4.628,0,0,0,1.773,1.773,4.628,4.628,0,0,0,.591,3.665a5.387,5.387,0,0,0-.473,2.6A34.931,34.931,0,0,0,0,10.64a34.931,34.931,0,0,0,.118,4.374,7.3,7.3,0,0,0,.473,2.6,4.628,4.628,0,0,0,1.182,1.892,4.628,4.628,0,0,0,1.892,1.182,7.3,7.3,0,0,0,2.6.473,34.931,34.931,0,0,0,4.374.118,34.931,34.931,0,0,0,4.374-.118,7.3,7.3,0,0,0,2.6-.473,4.96,4.96,0,0,0,3.074-3.074,7.3,7.3,0,0,0,.473-2.6c0-1.182.118-1.537.118-4.374a34.931,34.931,0,0,0-.118-4.374,7.3,7.3,0,0,0-.473-2.6,4.628,4.628,0,0,0-1.182-1.892A4.628,4.628,0,0,0,17.615.591a7.3,7.3,0,0,0-2.6-.473A34.931,34.931,0,0,0,10.64,0m0,5.2A5.351,5.351,0,0,0,5.2,10.64,5.438,5.438,0,1,0,10.64,5.2m0,8.985A3.483,3.483,0,0,1,7.093,10.64,3.483,3.483,0,0,1,10.64,7.093a3.483,3.483,0,0,1,3.547,3.547,3.483,3.483,0,0,1-3.547,3.547M16.315,3.665a1.3,1.3,0,1,0,1.3,1.3,1.312,1.312,0,0,0-1.3-1.3" transform="translate(1563 3087)" fill="#de032a" fill-rule="evenodd"/>
  </g>
</svg>
