<svg xmlns="http://www.w3.org/2000/svg" xmlns:xlink="http://www.w3.org/1999/xlink" width="4927" height="4927" viewBox="0 0 4927 4927">
  <defs>
    <linearGradient id="linear-gradient" x1="0.5" y1="-0.327" x2="0.5" y2="1.204" gradientUnits="objectBoundingBox">
      <stop offset="0" stop-color="#ffd21f"/>
      <stop offset="1" stop-color="#ff006f"/>
    </linearGradient>
  </defs>
  <g id="Group_297" data-name="Group 297" transform="translate(1538 16498)">
    <g id="Group_294" data-name="Group 294">
      <g id="Rectangle_1450" data-name="Rectangle 1450" transform="translate(-1538 -16498)" fill="none" stroke="#707070" stroke-width="1">
        <rect width="4927" height="4927" stroke="none"/>
        <rect x="0.5" y="0.5" width="4926" height="4926" fill="none"/>
      </g>
      <path id="Path_332" data-name="Path 332" d="M2786.171,2133.788h-789.16l414.336-856.21,68.4-141.506c8.22-22.056,15.629-44.519,22.023-67.387,20.128-72.056,31.664-147.7,31.664-226.214,0-464.944-377.022-841.9-842-841.9s-841.966,376.955-841.966,841.9c0,78.483,11.569,154.125,31.7,226.214,6.36,22.868,13.768,45.331,21.989,67.387l68.436,141.472,414.234,856.244H596.733L.06,3383.462H3382.912Zm-1094.7-1592.53c166.337,0,301.313,134.91,301.313,301.213,0,166.438-134.943,301.246-301.313,301.246s-301.246-134.876-301.246-301.246C1390.223,676.168,1525.1,541.258,1691.469,541.258ZM1213.535,2442.714c141.608,19.249,224.759,118.063,326.618,240.76,161.871,194.888,363.322,437.509,900.829,437.509,328.715,0,530-59.708,599.65-177.263l153.008,320.394h-1980.1Zm1626.12,80.073c-209.333.508-442.685-1.421-557.229-115.695-39.377-39.377-61.332-90.526-68.2-154.023H2711Zm-1148.186,242.52,247.864-512.2h215.422c7.645,79.667,35.419,146.141,85.553,196.275,126.249,126.013,358.078,133.116,571.471,133.116h41.373l15.054-.067,137.379,287.681a127.439,127.439,0,0,1-9.472,31.156c-33.592,73.07-157.169,160.078-555.03,160.078-509.463,0-693.018-220.97-854.889-415.994-103.685-124.761-202.939-242.08-372.524-262.14V2253.136h230.07Zm-1019.5-512.2h481.926V2379.25c-260.482,2.064-378.139,90.763-472.691,162.447-62.245,47.124-113.462,85.52-192.554,95.465ZM459.118,2698.866c116.642-3.383,185.653-54.837,258.08-109.605,91.947-69.688,196.613-148.2,436.7-150.133v824.986H189.265Z" transform="translate(-766.06 -15726.571)" fill="url(#linear-gradient)"/>
    </g>
  </g>
</svg>
