<svg xmlns="http://www.w3.org/2000/svg" width="28.768" height="21.04" viewBox="0 0 28.768 21.04">
  <g id="Group_245" data-name="Group 245" transform="translate(-1701.26 -3087)">
    <g id="Group_92" data-name="Group 92" transform="translate(1701.26 3087)">
      <g id="Group_244" data-name="Group 244">
        <path id="Path_224" data-name="Path 224" d="M1093.288,923.554l8.589,7.423,7.9-7.423" transform="translate(-1086.944 -919.494)" fill="none" stroke="#de032a" stroke-linecap="round" stroke-width="4"/>
      </g>
      <g id="Path_292" data-name="Path 292" transform="translate(0 0)" fill="none">
        <path d="M8,0H22.042c4.418,0,6.726,3.582,6.726,8v5.039a8,8,0,0,1-8,8H8a8,8,0,0,1-8-8V8A8,8,0,0,1,8,0Z" stroke="none"/>
        <path d="M 7.999994277954102 3.999994277954102 C 5.794384002685547 3.999994277954102 3.999994277954102 5.794394493103027 3.999994277954102 8.000004768371582 L 3.999994277954102 13.03944492340088 C 3.999994277954102 15.24505424499512 5.794384002685547 17.03944396972656 7.999994277954102 17.03944396972656 L 20.76828384399414 17.03944396972656 C 22.9738941192627 17.03944396972656 24.76828384399414 15.24505424499512 24.76828384399414 13.03944492340088 L 24.76828384399414 8.000004768371582 C 24.76828384399414 6.669354438781738 24.45473480224609 5.50423526763916 23.90803527832031 4.803394317626953 C 23.61625480651855 4.429344177246094 23.14045524597168 3.999994277954102 22.04190444946289 3.999994277954102 L 7.999994277954102 3.999994277954102 M 7.999994277954102 -5.7220458984375e-06 L 22.04190444946289 -5.7220458984375e-06 C 26.46017456054688 -5.7220458984375e-06 28.76828384399414 3.581724166870117 28.76828384399414 8.000004768371582 L 28.76828384399414 13.03944492340088 C 28.76828384399414 17.45772552490234 25.18656539916992 21.03944396972656 20.76828384399414 21.03944396972656 L 7.999994277954102 21.03944396972656 C 3.581724166870117 21.03944396972656 -5.7220458984375e-06 17.45772552490234 -5.7220458984375e-06 13.03944492340088 L -5.7220458984375e-06 8.000004768371582 C -5.7220458984375e-06 3.581724166870117 3.581724166870117 -5.7220458984375e-06 7.999994277954102 -5.7220458984375e-06 Z" stroke="none" fill="#de032a"/>
      </g>
    </g>
  </g>
</svg>
