<svg xmlns="http://www.w3.org/2000/svg" xmlns:xlink="http://www.w3.org/1999/xlink" width="4927" height="4927" viewBox="0 0 4927 4927">
  <defs>
    <linearGradient id="linear-gradient" x1="0.5" y1="-0.327" x2="0.5" y2="1.204" gradientUnits="objectBoundingBox">
      <stop offset="0" stop-color="#ffd21f"/>
      <stop offset="1" stop-color="#ff006f"/>
    </linearGradient>
  </defs>
  <g id="Group_298" data-name="Group 298" transform="translate(-4926 16498)">
    <g id="Group_295" data-name="Group 295">
      <g id="Rectangle_1451" data-name="Rectangle 1451" transform="translate(4926 -16498)" fill="none" stroke="#707070" stroke-width="1">
        <rect width="4927" height="4927" stroke="none"/>
        <rect x="0.5" y="0.5" width="4926" height="4926" fill="none"/>
      </g>
      <path id="Path_338" data-name="Path 338" d="M2080.682,572.25H1959.61V120.011C1959.61,48.792,1916.879,2.5,1859.9,2.5c-10.683,0-21.366,3.561-35.61,7.122L154.216,518.836C79.436,540.2,18.9,629.225,18.9,714.687V3228.708c0,85.462,71.219,156.681,156.681,156.681H2084.243c85.463,0,156.681-71.219,156.681-156.681V728.931C2233.8,643.469,2166.145,572.25,2080.682,572.25ZM738.209,2840.567c-17.8,28.488-53.414,39.17-81.9,21.365l-99.706-64.1c-28.487-17.8-35.609-56.975-14.244-85.463L948.3,2153.306l92.584,163.8Zm900.917-46.292-103.267,67.658c-28.488,17.8-67.658,10.683-85.463-21.366L962.548,1989.5,930.5,2003.746c-78.341,35.609-167.364,3.561-206.534-67.658-39.17-74.78-96.145-192.291-206.534-409.508-110.389-213.656,42.731-409.508,71.219-363.216l430.873,665.9,637.408,879.551C1674.735,2737.3,1667.614,2776.47,1639.126,2794.275Zm135.316-1445.741L1542.98,1725.993h0l-28.487,46.292c-32.048,46.292-74.78,81.9-121.072,89.023l-99.706,21.365-49.853,85.463-78.341-110.389,32.049-42.731-21.366-96.145c-10.683-46.292,0-99.706,32.048-149.559l28.488-46.292h0l249.266-366.776c3.561-7.122,10.683-7.122,14.244-3.561l39.17,24.927c3.56,3.561,7.122,10.683,3.56,14.244L1304.4,1569.312c-3.561,7.122-3.561,21.365,7.122,24.926,3.561,3.561,10.683,7.122,14.244,10.683,7.122,7.122,17.8,3.561,24.926-3.561,46.292-71.219,245.7-363.216,245.7-363.216,3.561-3.561,10.683-7.122,14.244-3.561l39.171,24.927c3.561,3.561,7.121,10.683,3.561,14.244l-231.461,373.9c-3.561,7.122-3.561,21.366,7.122,24.927,3.561,3.561,10.683,7.122,14.244,10.683,7.122,7.122,17.8,3.561,24.927-3.561,46.292-71.219,245.7-363.216,245.7-363.216,3.561-3.561,10.683-7.122,14.244-3.561l39.17,24.927C1774.442,1337.851,1774.442,1344.973,1774.442,1348.534Zm60.536-776.284H385.676l1449.3-441.556Z" transform="translate(6259.1 -15728.5)" fill="url(#linear-gradient)"/>
    </g>
  </g>
</svg>
