<svg width="24" height="24" viewBox="0 0 24 24" fill="none" xmlns="http://www.w3.org/2000/svg">
<path d="M0.80001 0.239319C0.358164 0.239319 0 0.633425 0 1.11958C0 1.60574 0.358164 1.99985 0.80001 1.99985H3.45836C4.78242 5.60817 6.08662 9.22305 7.40004 12.8379L6.19173 16.038C6.0905 16.3048 6.11898 16.6265 6.26509 16.8668C6.41119 17.1071 6.67064 17.2587 6.9334 17.2575H20.2668C20.6895 17.264 21.0782 16.8424 21.0782 16.3773C21.0782 15.9122 20.6894 15.4905 20.2668 15.497H8.1334L8.82508 13.6815L21.6668 12.5537C22.003 12.5246 22.3072 12.2366 22.3835 11.8752L23.9835 4.24633C24.0882 3.73249 23.6787 3.17181 23.2002 3.17351H5.60837L4.74169 0.789499C4.62303 0.466801 4.3164 0.239319 4.00003 0.239319H0.80001ZM6.25005 4.93402H11.2001V7.57476H7.20838L6.25005 4.93402ZM12.8001 4.93402H16.0001V7.57476H12.8001L12.8001 4.93402ZM17.6001 4.93402H22.1919L21.6418 7.57476H17.6001V4.93402ZM7.85007 9.33528H11.2001V11.7101L8.79175 11.921L7.85007 9.33528ZM12.8001 9.33528H16.0001V11.2883L12.8001 11.5726V9.33528ZM17.6001 9.33528H21.2668L20.9502 10.8574L17.6001 11.1508V9.33528ZM9.60008 17.8444C8.13679 17.8444 6.93339 19.1684 6.93339 20.7786C6.93339 22.3887 8.13679 23.7127 9.60008 23.7127C11.0634 23.7127 12.2668 22.3886 12.2668 20.7786C12.2668 19.1685 11.0633 17.8444 9.60008 17.8444ZM17.6001 17.8444C16.1369 17.8444 14.9335 19.1685 14.9335 20.7786C14.9335 22.3886 16.1369 23.7127 17.6001 23.7127C19.0634 23.7127 20.2668 22.3886 20.2668 20.7786C20.2668 19.1685 19.0634 17.8444 17.6001 17.8444ZM9.60008 19.6049C10.1987 19.6049 10.6668 20.1199 10.6668 20.7786C10.6668 21.4372 10.1987 21.9522 9.60008 21.9522C9.00149 21.9522 8.5334 21.4371 8.5334 20.7786C8.5334 20.12 9.00154 19.6049 9.60008 19.6049ZM17.6001 19.6049C18.1987 19.6049 18.6668 20.1199 18.6668 20.7786C18.6668 21.4372 18.1987 21.9522 17.6001 21.9522C17.0016 21.9522 16.5335 21.4372 16.5335 20.7786C16.5335 20.1199 17.0015 19.6049 17.6001 19.6049Z" fill="url(#paint0_linear)"/>
<defs>
<linearGradient id="paint0_linear" x1="12" y1="-7.43649" x2="12" y2="28.5013" gradientUnits="userSpaceOnUse">
<stop stop-color="#FFD21F"/>
<stop offset="1" stop-color="#FF006F"/>
</linearGradient>
</defs>
</svg>
