<svg xmlns="http://www.w3.org/2000/svg" width="25.417" height="20.616" viewBox="0 0 25.417 20.616">
  <g id="Group_242" data-name="Group 242" transform="translate(-1611.09 -3087)">
    <path id="Path_39" data-name="Path 39" d="M46.049,22.616A14.7,14.7,0,0,0,60.875,7.789V7.083A11.478,11.478,0,0,0,63.417,4.4a11.722,11.722,0,0,1-2.965.847,5.494,5.494,0,0,0,2.259-2.824,12.952,12.952,0,0,1-3.248,1.271A5.043,5.043,0,0,0,55.65,2a5.305,5.305,0,0,0-5.225,5.225,2.753,2.753,0,0,0,.141,1.13A14.6,14.6,0,0,1,39.836,2.847,5.408,5.408,0,0,0,39.13,5.53a5.61,5.61,0,0,0,2.259,4.377,4.76,4.76,0,0,1-2.4-.706h0a5.161,5.161,0,0,0,4.236,5.083,4.353,4.353,0,0,1-1.412.141,2.4,2.4,0,0,1-.988-.141,5.349,5.349,0,0,0,4.942,3.671,10.661,10.661,0,0,1-6.5,2.259A3.909,3.909,0,0,1,38,20.074a13.328,13.328,0,0,0,8.049,2.542" transform="translate(1573.09 3085)" fill="#de032a" fill-rule="evenodd"/>
  </g>
</svg>
